<svg width="960" height="540" viewBox="0 0 960 540" xmlns="http://www.w3.org/2000/svg">
  <rect width="960" height="540" fill="#ffffff"/>
  <rect x="40" y="40" width="880" height="460" rx="16" ry="16" fill="#f3f4f6" stroke="#d1d5db" stroke-width="2"/>
  <text x="60" y="90" font-family="Segoe UI, system-ui, -apple-system, sans-serif" font-size="24" fill="#111827">
    Network Topology – AVD + AADDS
  </text>
  <rect x="80" y="130" width="260" height="120" rx="12" ry="12" fill="#e0f2fe" stroke="#60a5fa" stroke-width="2"/>
  <text x="100" y="165" font-family="Segoe UI, system-ui, -apple-system, sans-serif" font-size="16" fill="#0f172a">
    Identity
  </text>
  <text x="100" y="190" font-family="Segoe UI, system-ui, -apple-system, sans-serif" font-size="14" fill="#374151">
    Microsoft Entra DS
  </text>
  <text x="100" y="210" font-family="Segoe UI, system-ui, -apple-system, sans-serif" font-size="14" fill="#374151">
    jasonlab.com
  </text>
  <rect x="360" y="130" width="260" height="120" rx="12" ry="12" fill="#dcfce7" stroke="#4ade80" stroke-width="2"/>
  <text x="380" y="165" font-family="Segoe UI, system-ui, -apple-system, sans-serif" font-size="16" fill="#0f172a">
    AVD Workload
  </text>
  <text x="380" y="190" font-size="14" font-family="Segoe UI, system-ui, -apple-system, sans-serif" fill="#374151">
    Host Pool + VMSS
  </text>
  <rect x="640" y="130" width="220" height="120" rx="12" ry="12" fill="#fef9c3" stroke="#facc15" stroke-width="2"/>
  <text x="660" y="165" font-family="Segoe UI, system-ui, -apple-system, sans-serif" font-size="16" fill="#0f172a">
    Storage
  </text>
  <text x="660" y="190" font-size="14" font-family="Segoe UI, system-ui, -apple-system, sans-serif" fill="#374151">
    Azure Files (FSLogix)
  </text>
  <line x1="210" y1="250" x2="490" y2="250" stroke="#6b7280" stroke-width="2" marker-end="url(#arrow)"/>
  <line x1="490" y1="250" x2="750" y2="250" stroke="#6b7280" stroke-width="2" marker-end="url(#arrow)"/>
  <text x="280" y="240" font-size="12" font-family="Segoe UI, system-ui, -apple-system, sans-serif" fill="#4b5563">
    DNS / Kerberos / LDAP
  </text>
  <text x="540" y="240" font-size="12" font-family="Segoe UI, system-ui, -apple-system, sans-serif" fill="#4b5563">
    SMB / FSLogix
  </text>
  <defs>
    <marker id="arrow" markerWidth="10" markerHeight="10" refX="6" refY="3" orient="auto">
      <path d="M0,0 L0,6 L6,3 z" fill="#6b7280" />
    </marker>
  </defs>
</svg>
